# This file uses centimeters as units for non-parametric coordinates.

mtllib environmentGeo_surface9.mtl
g default
v -50.000000 0.000000 -50.000000
v 50.000000 0.000000 -50.000000
v -50.000000 11.000000 -50.000000
v 50.000000 11.000000 -50.000000
vt -0.500000 0.000000
vt 1.499999 0.000000
vt 1.499999 0.999999
vt -0.500000 1.000000
vn 0.000000 0.000000 1.000000
vn 0.000000 0.000000 1.000000
vn 0.000000 0.000000 1.000000
vn 0.000000 0.000000 1.000000
s 1
g environmentGeo_surface9 environmentGEO geo2
usemtl initialShadingGroup
f 1/1/1 2/2/2 3/4/3
f 3/4/3 2/2/2 4/3/4
