# This file uses centimeters as units for non-parametric coordinates.

mtllib environmentGeo_surface11.mtl
g default
v 25.000031 0.000000 -22.471695
v 25.000031 0.000000 -14.388371
v 24.135445 0.000000 -14.388371
v 24.135445 0.000000 -22.471695
vt 0.750000 0.724717
vt 0.741355 0.724717
vt 0.741354 0.643884
vt 0.750000 0.643884
vn 0.000000 1.000000 0.000000
vn 0.000000 1.000000 0.000000
vn 0.000000 1.000000 0.000000
vn 0.000000 1.000000 0.000000
s 1
g environmentGeo_surface11 environmentGEO geo2
usemtl initialShadingGroup
f 1/1/1 4/2/2 2/4/3
f 2/4/3 4/2/2 3/3/4
