# This file uses centimeters as units for non-parametric coordinates.

mtllib environmentGeo_surface4.mtl
g default
v -25.000000 0.000000 -25.000027
v 25.000031 0.000000 -25.000027
v -25.000000 0.000000 -22.471695
v 25.000031 0.000000 -22.471695
vt 0.250000 0.750000
vt 0.250000 0.724717
vt 0.750000 0.724717
vt 0.750000 0.750000
vn 0.000000 1.000000 0.000000
vn 0.000000 1.000000 0.000000
vn 0.000000 1.000000 0.000000
vn 0.000000 1.000000 0.000000
s 1
g environmentGeo_surface4 environmentGEO geo2
usemtl initialShadingGroup
f 1/1/1 3/2/2 2/4/3
f 2/4/3 3/2/2 4/3/4
