# This file uses centimeters as units for non-parametric coordinates.

mtllib environmentGeo_surface17.mtl
g default
v -3.447891 0.000000 -14.388371
v -3.447891 0.000000 -22.471695
v -6.357422 0.000000 -14.388372
v -6.357422 0.000000 -22.471695
vt 0.465521 0.643884
vt 0.465521 0.724717
vt 0.436426 0.724717
vt 0.436426 0.643884
vn 0.000000 1.000000 0.000000
vn 0.000000 1.000000 0.000000
vn 0.000000 1.000000 0.000000
vn 0.000000 1.000000 0.000000
s 1
g environmentGeo_surface17 environmentGEO geo2
usemtl initialShadingGroup
f 1/1/1 2/2/2 3/4/3
f 3/4/3 2/2/2 4/3/4
