# This file uses centimeters as units for non-parametric coordinates.

mtllib environmentGeo_surface21.mtl
g default
v -6.357422 0.000000 -14.388372
v -6.357422 -1.000000 -14.388372
v -6.357422 -1.000000 -22.471695
v -6.357422 0.000000 -22.471695
vt 0.000000 0.000000
vt 1.000000 0.000000
vt 1.000000 1.000000
vt 0.000000 1.000000
vn -1.000000 0.000000 0.000000
vn -1.000000 0.000000 0.000000
vn -1.000000 0.000000 0.000000
vn -1.000000 0.000000 0.000000
s 1
g environmentGeo_surface21 environmentGEO geo2
usemtl initialShadingGroup
f 1/1/1 4/2/2 2/4/3
f 2/4/3 4/2/2 3/3/4
