# This file uses centimeters as units for non-parametric coordinates.

mtllib environmentGeo_surface14.mtl
g default
v -3.447891 -11.000000 -14.388371
v -3.447891 -11.000000 -22.471695
v -3.447891 0.000000 -14.388371
v -3.447891 0.000000 -22.471695
vt 0.000000 0.000000
vt 1.000000 0.000000
vt 1.000000 1.000000
vt 0.000000 1.000000
vn 1.000000 0.000000 0.000000
vn 1.000000 0.000000 0.000000
vn 1.000000 0.000000 0.000000
vn 1.000000 0.000000 0.000000
s 1
g environmentGeo_surface14 environmentGEO geo2
usemtl initialShadingGroup
f 4/1/1 3/2/2 2/4/3
f 2/4/3 3/2/2 1/3/4
