# This file uses centimeters as units for non-parametric coordinates.

mtllib environmentGeo_surface3.mtl
g default
v -50.000000 0.000000 -25.000027
v -50.000000 0.000000 25.000000
v -25.000000 0.000000 25.000000
v -25.000000 0.000000 -25.000027
vt 0.000000 0.250000
vt 0.250000 0.250000
vt 0.250000 0.750000
vt 0.000000 0.750000
vn 0.000000 1.000000 0.000000
vn 0.000000 1.000000 0.000000
vn 0.000000 1.000000 0.000000
vn 0.000000 1.000000 0.000000
s 1
g environmentGeo_surface3 environmentGEO geo2
usemtl initialShadingGroup
f 2/1/1 3/2/2 1/4/3
f 1/4/3 3/2/2 4/3/4
