# This file uses centimeters as units for non-parametric coordinates.

mtllib environmentGeo_surface2.mtl
g default
v -50.000000 0.000000 50.000000
v 50.000000 0.000000 50.000000
v -50.000000 0.000000 25.000000
v 50.000000 0.000000 25.000000
vt 0.000000 0.000000
vt 0.000000 0.250000
vt 1.000000 0.000000
vt 1.000000 0.250000
vn 0.000000 1.000000 0.000000
vn 0.000000 1.000000 0.000000
vn 0.000000 1.000000 0.000000
vn 0.000000 1.000000 0.000000
s 1
g environmentGeo_surface2 environmentGEO geo2
usemtl initialShadingGroup
f 3/2/1 1/1/2 4/4/3
f 4/4/3 1/1/2 2/3/4
