# This file uses centimeters as units for non-parametric coordinates.

mtllib environmentGeo_surface19.mtl
g default
v -25.000000 0.000000 -14.388371
v -6.357422 0.000000 -14.388372
v -25.000000 -1.000000 -14.388371
v -6.357422 -1.000000 -14.388372
vt 0.000000 0.000000
vt 1.000000 0.000000
vt 1.000000 1.000000
vt 0.000000 1.000000
vn -0.000000 0.000000 -1.000000
vn -0.000000 0.000000 -1.000000
vn -0.000000 0.000000 -1.000000
vn 0.000000 0.000000 -1.000000
s 1
g environmentGeo_surface19 environmentGEO geo2
usemtl initialShadingGroup
f 1/1/1 2/2/2 3/4/3
f 3/4/3 2/2/2 4/3/4
