# This file uses centimeters as units for non-parametric coordinates.

v -0.500000 -0.500000 2.000000
v 0.500000 -0.500000 2.000000
v -0.500000 0.500000 2.000000
v 0.500000 0.500000 2.000000
v -0.500000 0.500000 -2.000000
v 0.500000 0.500000 -2.000000
v -0.500000 -0.500000 -2.000000
v 0.500000 -0.500000 -2.000000
vt 0.500000 0.166667
vt 0.500000 0.833333
vt 0.333333 0.833333
vt 0.333333 0.166667
vt 0.000000 0.833333
vt 0.000000 0.166667
vt 0.166667 0.166667
vt 0.166667 0.833333
vt 0.666667 0.833333
vt 0.666667 0.166667
vt 0.166667 0.000000
vt 0.333333 0.000000
vt 0.333333 1.000000
vt 0.166667 1.000000
vn 0.000000 0.000000 1.000000
vn 0.000000 0.000000 1.000000
vn 0.000000 0.000000 1.000000
vn 0.000000 0.000000 1.000000
vn 0.000000 1.000000 0.000000
vn 0.000000 1.000000 0.000000
vn 0.000000 1.000000 0.000000
vn 0.000000 1.000000 0.000000
vn 0.000000 0.000000 -1.000000
vn 0.000000 0.000000 -1.000000
vn 0.000000 0.000000 -1.000000
vn 0.000000 0.000000 -1.000000
vn 0.000000 -1.000000 0.000000
vn 0.000000 -1.000000 0.000000
vn 0.000000 -1.000000 0.000000
vn 0.000000 -1.000000 0.000000
vn 1.000000 0.000000 0.000000
vn 1.000000 0.000000 0.000000
vn 1.000000 0.000000 0.000000
vn 1.000000 0.000000 0.000000
vn -1.000000 0.000000 0.000000
vn -1.000000 0.000000 0.000000
vn -1.000000 0.000000 0.000000
vn -1.000000 0.000000 0.000000
f 1/11/1 2/12/2 4/4/3 3/7/4
f 3/7/5 4/4/6 6/3/7 5/8/8
f 5/8/9 6/3/10 8/13/11 7/14/12
f 7/9/13 8/2/14 2/1/15 1/10/16
f 2/1/17 8/2/18 6/3/19 4/4/20
f 7/5/21 1/6/22 3/7/23 5/8/24
